<svg xmlns="http://www.w3.org/2000/svg" width="1648" height="900" viewBox="0 0 1648 900" role="img" aria-labelledby="title desc">
  <title id="title">Backend technology stack</title>
  <desc id="desc">Swiss editorial technology map with Java, C sharp, Spring Boot, .NET, SQL Server, PostgreSQL, MongoDB and delivery tools.</desc>
  <rect width="1648" height="900" rx="28" fill="#f4f0e6"/>
  <rect width="1648" height="120" fill="#121212"/>
  <text x="58" y="77" fill="#f4f0e6" font-family="Arial,Helvetica,sans-serif" font-size="44" font-weight="900">BACKEND STACK / SYSTEM MAP</text>
  <text x="1580" y="76" text-anchor="end" fill="#ffd84d" font-family="Courier New,monospace" font-size="22">01 — 04</text>
  <g stroke="#121212" stroke-width="5" fill="none">
    <path d="M0 310H1648M0 530H1648M0 750H1648"/>
    <path d="M320 120V900M710 120V900M1110 120V900"/>
  </g>
  <g font-family="Courier New,monospace" font-size="18" font-weight="700" fill="#121212">
    <text x="24" y="154">01 / LANGUAGES</text><text x="344" y="154">02 / SERVICES</text>
    <text x="734" y="154">03 / DATA</text><text x="1134" y="154">04 / DELIVERY</text>
  </g>
  <g font-family="Arial,Helvetica,sans-serif" font-weight="900" fill="#121212">
    <g transform="translate(28 186)"><rect width="264" height="96" fill="#ff5c35" stroke="#121212" stroke-width="5"/><text x="24" y="62" font-size="38">JAVA</text></g>
    <g transform="translate(28 350)"><rect width="264" height="96" fill="#2454ff" stroke="#121212" stroke-width="5"/><text x="24" y="62" fill="#fff" font-size="38">C#</text></g>
    <g transform="translate(350 186)"><rect width="330" height="96" fill="#74c947" stroke="#121212" stroke-width="5"/><text x="24" y="62" font-size="34">SPRING BOOT</text></g>
    <g transform="translate(350 350)"><rect width="330" height="96" fill="#8b75ff" stroke="#121212" stroke-width="5"/><text x="24" y="62" font-size="38">.NET</text></g>
    <g transform="translate(350 570)"><rect width="330" height="96" fill="#ffd84d" stroke="#121212" stroke-width="5"/><text x="24" y="59" font-size="29">MICROSERVICES</text></g>
    <g transform="translate(750 186)"><rect width="330" height="96" fill="#ff5c35" stroke="#121212" stroke-width="5"/><text x="24" y="59" font-size="30">SQL SERVER</text></g>
    <g transform="translate(750 350)"><rect width="330" height="96" fill="#2454ff" stroke="#121212" stroke-width="5"/><text x="24" y="59" fill="#fff" font-size="29">POSTGRESQL</text></g>
    <g transform="translate(750 570)"><rect width="330" height="96" fill="#74c947" stroke="#121212" stroke-width="5"/><text x="24" y="59" font-size="31">MONGODB</text></g>
    <g transform="translate(1150 186)"><rect width="450" height="96" fill="#62c8ff" stroke="#121212" stroke-width="5"/><text x="24" y="59" font-size="31">DOCKER / GIT / CI·CD</text></g>
    <g transform="translate(1150 350)"><rect width="450" height="96" fill="#ff9a68" stroke="#121212" stroke-width="5"/><text x="24" y="59" font-size="31">POSTMAN / VS CODE</text></g>
    <g transform="translate(1150 570)"><rect width="450" height="96" fill="#ffd84d" stroke="#121212" stroke-width="5"/><text x="24" y="59" font-size="31">AZURE / AWS</text></g>
  </g>
  <g fill="#121212">
    <circle r="9"><animateMotion dur="4s" repeatCount="indefinite" path="M292 234H350"/></circle>
    <circle r="9"><animateMotion dur="4.8s" begin=".7s" repeatCount="indefinite" path="M680 398H750"/></circle>
    <circle r="9"><animateMotion dur="5.2s" begin="1.1s" repeatCount="indefinite" path="M1080 618H1150"/></circle>
  </g>
  <text x="58" y="830" fill="#121212" font-family="Arial,Helvetica,sans-serif" font-size="42" font-weight="900">BUILD SIMPLE. SCALE WHEN NEEDED.</text>
  <rect x="1310" y="790" width="290" height="70" fill="#2454ff" stroke="#121212" stroke-width="5"/>
  <text x="1455" y="835" text-anchor="middle" fill="#fff" font-family="Courier New,monospace" font-size="18" font-weight="700">DATABASE OPTIMIZATION</text>
</svg>
